<svg width="58" height="58" viewBox="0 0 58 58" fill="none" xmlns="http://www.w3.org/2000/svg">
<g clip-path="url(#clip0_182_9562)">
<rect x="1" y="0.5" width="56" height="57" rx="12" fill="white" fill-opacity="0.15"/>
<g opacity="0.48" filter="url(#filter0_f_182_9562)">
<rect x="1" y="1.5" width="56" height="56" fill="url(#paint0_radial_182_9562)" fill-opacity="0.48"/>
</g>
<path d="M27.75 25.25L24.8839 28.1161C24.3957 28.6043 24.3957 29.3957 24.8839 29.8839L27.75 32.75M25.25 29H34M22.75 41.5H35.25C38.7018 41.5 41.5 38.7018 41.5 35.25V22.75C41.5 19.2982 38.7018 16.5 35.25 16.5H22.75C19.2982 16.5 16.5 19.2982 16.5 22.75V35.25C16.5 38.7018 19.2982 41.5 22.75 41.5Z" stroke="#1E1F21" stroke-width="1.5" stroke-linecap="round"/>
</g>
<rect x="1" y="0.5" width="56" height="57" rx="12" stroke="url(#paint1_radial_182_9562)" stroke-opacity="0.12" stroke-width="0.5" style="mix-blend-mode:lighten"/>
<defs>
<filter id="filter0_f_182_9562" x="-39" y="-38.5" width="136" height="136" filterUnits="userSpaceOnUse" color-interpolation-filters="sRGB">
<feFlood flood-opacity="0" result="BackgroundImageFix"/>
<feBlend mode="normal" in="SourceGraphic" in2="BackgroundImageFix" result="shape"/>
<feGaussianBlur stdDeviation="20" result="effect1_foregroundBlur_182_9562"/>
</filter>
<radialGradient id="paint0_radial_182_9562" cx="0" cy="0" r="1" gradientUnits="userSpaceOnUse" gradientTransform="translate(29 29.5) rotate(90) scale(28)">
<stop stop-color="#CC8B8B"/>
<stop offset="1" stop-color="#A33B3B" stop-opacity="0"/>
</radialGradient>
<radialGradient id="paint1_radial_182_9562" cx="0" cy="0" r="1" gradientUnits="userSpaceOnUse" gradientTransform="translate(1 0.5) rotate(45.507) scale(79.9062 44.0374)">
<stop stop-color="#B86E9F"/>
<stop offset="1" stop-color="#662525"/>
</radialGradient>
<clipPath id="clip0_182_9562">
<rect x="1" y="0.5" width="56" height="57" rx="12" fill="white"/>
</clipPath>
</defs>
</svg>
